<svg width="20" height="20" viewBox="0 0 20 20" fill="none" xmlns="http://www.w3.org/2000/svg">
<path d="M0.555784 5.04674C1.06405 2.81039 2.81039 1.06405 5.04674 0.555784C8.30734 -0.185261 11.6927 -0.185261 14.9533 0.555784C17.1896 1.06405 18.936 2.81039 19.4442 5.04674C20.1853 8.30734 20.1853 11.6927 19.4442 14.9533C18.936 17.1896 17.1896 18.936 14.9533 19.4442C11.6927 20.1853 8.30734 20.1853 5.04674 19.4442C2.81039 18.936 1.06405 17.1896 0.555784 14.9533C-0.185261 11.6927 -0.185261 8.30734 0.555784 5.04674Z" fill="#F5EEFC"/>
<path fill-rule="evenodd" clip-rule="evenodd" d="M13 8C13.8284 8 14.5 8.67157 14.5 9.5V13C14.5 13.8284 13.8284 14.5 13 14.5H7C6.17157 14.5 5.5 13.8284 5.5 13V7C5.5 6.17157 6.17157 5.5 7 5.5H9C9.82843 5.5 10.5 6.17157 10.5 7V8H13ZM7.125 7.75C7.125 7.54289 7.29289 7.375 7.5 7.375H8.5C8.70711 7.375 8.875 7.54289 8.875 7.75C8.875 7.95711 8.70711 8.125 8.5 8.125H7.5C7.29289 8.125 7.125 7.95711 7.125 7.75ZM7.5 9.375C7.29289 9.375 7.125 9.54289 7.125 9.75C7.125 9.95711 7.29289 10.125 7.5 10.125H8.5C8.70711 10.125 8.875 9.95711 8.875 9.75C8.875 9.54289 8.70711 9.375 8.5 9.375H7.5ZM11.25 10.75C11.25 10.5429 11.4179 10.375 11.625 10.375H12.625C12.8321 10.375 13 10.5429 13 10.75C13 10.9571 12.8321 11.125 12.625 11.125H11.625C11.4179 11.125 11.25 10.9571 11.25 10.75ZM7.5 11.375C7.29289 11.375 7.125 11.5429 7.125 11.75C7.125 11.9571 7.29289 12.125 7.5 12.125H8.5C8.70711 12.125 8.875 11.9571 8.875 11.75C8.875 11.5429 8.70711 11.375 8.5 11.375H7.5Z" fill="#9D50E5"/>
</svg>
