<svg width="40" height="40" viewBox="0 0 40 40" fill="none" xmlns="http://www.w3.org/2000/svg">
<path d="M1.11157 10.0935C2.12809 5.62078 5.62078 2.12809 10.0935 1.11157C16.6147 -0.370523 23.3853 -0.370523 29.9065 1.11157C34.3792 2.12809 37.8719 5.62078 38.8884 10.0935C40.3705 16.6147 40.3705 23.3853 38.8884 29.9065C37.8719 34.3792 34.3792 37.8719 29.9065 38.8884C23.3853 40.3705 16.6147 40.3705 10.0935 38.8884C5.62078 37.8719 2.12809 34.3792 1.11157 29.9065C-0.370523 23.3853 -0.370523 16.6147 1.11157 10.0935Z" fill="#E5F6F3"/>
<path fill-rule="evenodd" clip-rule="evenodd" d="M26 16C27.6569 16 29 17.3431 29 19V26C29 27.6569 27.6569 29 26 29H14C12.3431 29 11 27.6569 11 26V14C11 12.3431 12.3431 11 14 11H18C19.6569 11 21 12.3431 21 14V16H26ZM14.25 15.5C14.25 15.0858 14.5858 14.75 15 14.75H17C17.4142 14.75 17.75 15.0858 17.75 15.5C17.75 15.9142 17.4142 16.25 17 16.25H15C14.5858 16.25 14.25 15.9142 14.25 15.5ZM15 18.75C14.5858 18.75 14.25 19.0858 14.25 19.5C14.25 19.9142 14.5858 20.25 15 20.25H17C17.4142 20.25 17.75 19.9142 17.75 19.5C17.75 19.0858 17.4142 18.75 17 18.75H15ZM22.5 21.5C22.5 21.0858 22.8358 20.75 23.25 20.75H25.25C25.6642 20.75 26 21.0858 26 21.5C26 21.9142 25.6642 22.25 25.25 22.25H23.25C22.8358 22.25 22.5 21.9142 22.5 21.5ZM15 22.75C14.5858 22.75 14.25 23.0858 14.25 23.5C14.25 23.9142 14.5858 24.25 15 24.25H17C17.4142 24.25 17.75 23.9142 17.75 23.5C17.75 23.0858 17.4142 22.75 17 22.75H15Z" fill="#00A889"/>
</svg>
